<svg width="600" height="600" viewBox="0 0 600 600" fill="none" xmlns="http://www.w3.org/2000/svg">
<rect width="600" height="600" fill="white"/>
<circle cx="300" cy="292" r="180" stroke="url(#paint0_linear_9_2)" stroke-width="40"/>
<ellipse cx="300" cy="291.5" rx="90" ry="85.5" fill="url(#paint1_linear_9_2)"/>
<line x1="297" y1="377" x2="297" y2="206" stroke="url(#paint2_linear_9_2)" stroke-width="6"/>
<line x1="210" y1="289" x2="390" y2="289" stroke="url(#paint3_linear_9_2)" stroke-width="6"/>
<line x1="297" y1="377" x2="297" y2="557" stroke="black" stroke-width="6"/>
<line x1="390" y1="289" x2="570" y2="289" stroke="#222222" stroke-width="6"/>
<line x1="30" y1="289" x2="210" y2="289" stroke="black" stroke-width="6"/>
<line x1="297" y1="26" x2="297" y2="206" stroke="black" stroke-width="6"/>
<line x1="297" y1="122" x2="297" y2="92" stroke="#222222" stroke-width="6"/>
<line x1="130" y1="289" x2="100" y2="289" stroke="#222222" stroke-width="6"/>
<line x1="470" y1="289" x2="500" y2="289" stroke="#222222" stroke-width="6"/>
<line x1="297" y1="492" x2="297" y2="462" stroke="#171717" stroke-width="6"/>
<line x1="297" y1="292" x2="297" y2="286" stroke="#E5E4E4" stroke-width="6"/>
<defs>
<linearGradient id="paint0_linear_9_2" x1="300" y1="92" x2="300" y2="492" gradientUnits="userSpaceOnUse">
<stop stop-color="#555555"/>
<stop offset="1" stop-color="#222222"/>
</linearGradient>
<linearGradient id="paint1_linear_9_2" x1="300" y1="206" x2="300" y2="377" gradientUnits="userSpaceOnUse">
<stop stop-color="#555555"/>
<stop offset="1"/>
</linearGradient>
<linearGradient id="paint2_linear_9_2" x1="300.5" y1="206" x2="300.5" y2="377" gradientUnits="userSpaceOnUse">
<stop stop-color="white"/>
<stop offset="1" stop-color="#C9C9C9"/>
</linearGradient>
<linearGradient id="paint3_linear_9_2" x1="210" y1="292.5" x2="390" y2="292.5" gradientUnits="userSpaceOnUse">
<stop stop-color="white"/>
<stop offset="1" stop-color="#999999"/>
</linearGradient>
</defs>
</svg>
